<?xml version="1.0" encoding="utf-8"?>
<!-- Generator: Adobe Illustrator 15.1.0, SVG Export Plug-In . SVG Version: 6.00 Build 0)  -->
<!DOCTYPE svg PUBLIC "-//W3C//DTD SVG 1.1//EN" "http://www.w3.org/Graphics/SVG/1.1/DTD/svg11.dtd">
<svg version="1.1" id="Layer_1" xmlns="http://www.w3.org/2000/svg" xmlns:xlink="http://www.w3.org/1999/xlink" x="0px" y="0px"
	 width="142.545px" height="124.008px" viewBox="0 0 142.545 124.008" enable-background="new 0 0 142.545 124.008"
	 xml:space="preserve">
<path fill="#FFFFFF" d="M142.145,120.629L73.115,1.066C72.735,0.407,72.03,0,71.267,0c-0.762,0-1.467,0.407-1.848,1.066
	L0.286,120.809c-0.381,0.659-0.381,1.473,0,2.133s1.086,1.066,1.848,1.066h138.268c0.004,0,0.01,0,0.013,0
	c1.179,0,2.132-0.955,2.132-2.133C142.545,121.409,142.398,120.979,142.145,120.629z M64.263,119.741
	c-0.41-4.289-1.248-12.764,0.322-19.965c1.965-9.019,3.667-13.004,6.31-19.904c1.721-4.487,3.01-6.587,3.702-7.433
	c0.84,1.08,0.451,2.947-0.262,4.373c0.73,1.197,1.461,2.37,2.191,3.567c1.072,2.245,0.636,0.013,0.866-1.44
	c0.393-2.58,3.12-4.114,2.778-6.953c-1.275-3.145,2.684-2.57,4.693-2.748c2.215-0.033,4.684,1.35,6.369,1.938
	c0.191-1.938-0.303-3.809-0.709-5.687c1.511,1.827,2.616,4.092,2.56,6.511c1.213,1.126,2.323,2.395,3.882,3.048
	c-0.082-1.13-0.163-2.259-0.244-3.388c0.453,1.396,0.908,2.792,1.359,4.189c0.734,1.179,1.984,2.045,2.92,3.104
	c0.252-2.403,1.021-4.786,0.659-7.212c0.115-1.251-0.485-2.297-1.096-3.339c-0.789-2.029-2.617-3.282-4.278-4.574
	c-3.359-2.643-7.896-3.198-12.011-2.553c-2.593,0.271-4.604,2.062-7.052,2.818c1.671-2.178,3.342-4.354,5.01-6.532
	c0.594-0.737-1.007-1.34-1.359-2.018c-0.234-0.442,1.633,0.227,2.232,0.227c0.984,0.465,1.525-0.717,2.265-1.16
	c0.584-0.599,1.981-1.13,0.769-1.875c-0.517-0.63-1.367-1.571-1.679-2.006c0.706,0.465,1.558,1.304,2.175,1.537
	c0.094-1.413,0.389-1.414,0.87-0.107c0.196,1.184,1.323,1.013,2.257,1.123c0.688,1.159,1.264,2.392,2.033,3.499
	c0.8,1.527,0.434-0.381,0.467-1.114c0.166-1.521-0.521-2.872-1.035-4.258c-1.943-1.838-4.158-3.479-6.205-5.242
	c-0.68-0.911-1.819-0.732-2.82-0.881c-1.547-0.418-0.991,0.229-0.156,1.019c0.953,0.938,1.178,1.33-0.188,0.538
	c-0.74-0.247-1.932-0.708-2.402,0.153c-0.506,0.828-1.768,1.377-1.576,2.46c0.279,0.736,1.715,0.553,2.463,0.918
	c-0.976,0.998-2.434,0.612-3.687,0.814c-1.151,2.713-2.302,5.425-3.45,8.139c-0.425-1.785-0.331-5.147-1.978-7.004
	c-0.691-1.975-1.849-3.686-3.035-5.389c-1.05-0.634-2.349-0.962-3.494-1.479c-1.393-0.335-2.789-0.993-4.239-0.874
	c-1.635-0.059-3.174,0.407-4.701,0.936c-1.289,1.833-2.653,3.615-3.736,5.58c-1.05,1.241-0.774,2.921-1.036,4.424
	c0.073,0.812,0.182,1.899,0.679,2.501c0.893,0.928,1.548-0.077,2.253-0.691c0.271-2.203,0.54-4.405,0.81-6.609
	c0.856-0.541,0.248,1.336,0.281,1.918c-0.09,0.706,0.413,2.663,1.177,2.078c1.313-1.519,4.373-0.574,4.842-2.666
	c0.429-1.3,0.148,1.12,0.238,1.607c1.167,0.321,2.333,0.644,3.5,0.967c0.73-1.244,1.462-2.488,2.192-3.733
	c-0.347,1.405-0.694,2.809-1.042,4.213c1.428,1.329,2.552,2.967,3.519,4.65c0.983,1.328,1.173,2.956,1.524,4.523
	c-2.255-0.943-4.509-1.885-6.763-2.827c-1.605-0.397-3.154-1.349-4.848-1.077c-1.599-0.127-2.998,0.564-4.353,1.348
	c-3.095,1.307-5.211,4.003-6.867,6.818c-1.816,2.28-0.694,5.34-0.011,7.846c0.657,1.769,1.341,4.429,2.204,5.634
	c1.03-1.147,1.012-2.699,1.31-4.128c-0.495-1.471-1.405-2.881-2.058-4.328c0.75,1.084,1.498,2.169,2.248,3.253
	c0.762,0.209,1.229-3.286,2.521-4.075c-0.656-0.988-1.313-1.978-1.971-2.968c0.821,0.456,1.446,1.413,2.425,1.455
	c1.827,0.024,3.156-2.438,5.431-1.951c-0.887-0.974-1.776-1.946-2.663-2.919c-0.598-0.674-1.835-1.746-0.221-1.039
	c1.451,0.782,2.693,1.98,4.062,2.924c1.337,0.231,2.797,0.192,4.16,0.513c-0.868,0.343-1.735,0.687-2.603,1.029
	c-1.536,0.811-3.364,1.242-4.512,2.618c-1.884,1.645-3.342,3.663-4.83,5.657c-0.322,1.522-0.309,3.173-0.502,4.745
	c0.042,1.183-0.551,2.471-0.009,3.571c0.615,1.87,1.863,3.371,3.024,4.925c0.728,1.15,1.625,2.128,2.811,2.813
	c-0.166-1.389-0.423-2.771-0.471-4.17c0.204-1.071-0.646-1.73-1.234-2.493c-0.984-1.056-0.829-1.129,0.376-0.418
	c1.04,0.566,1.74,0.548,1.673-0.807c-0.707-0.627-1.331-1.331-1.905-2.082c-0.346-0.748-1.661-1.334-1.246-2.21
	c0.756,1.248,4.047,3.407,4.103,0.82c-0.404-0.775-1.417-1.348-2.055-2.047c0.877,0.412,1.754,0.825,2.633,1.237
	c0.79-1.038,1.579-2.076,2.367-3.114c-0.684-1.112-1.368-2.225-2.051-3.337c0.873,0.397,1.746,0.793,2.618,1.189
	c0.958,0.882,1.417-0.479,2.05-1.06c-0.991-1.225-1.984-2.45-2.976-3.674c1.331,0.604,2.664,1.209,3.994,1.813
	c1.891,0.881,2.955-3.535,5.492-2.278c-1.177,1.572-4.056,5.686-6.66,11.517c-3.373,7.552-4.565,10.566-6.337,18.896
	c-1.761,8.264-1.325,10.588-0.894,17.842h-52.6L71.267,6.399l65.438,113.342H64.263z"/>
</svg>
